<svg width="1920" height="1080" viewBox="0 0 1920 1080" fill="none" xmlns="http://www.w3.org/2000/svg">
<g clip-path="url(#clip0_2196_2254)">
<rect width="1920" height="1080" fill="url(#paint0_radial_2196_2254)"/>
<g opacity="0.4">
<path d="M964.884 718.288L948 701.406L949.086 700.32L965.97 717.202L964.884 718.288Z" fill="white"/>
<path d="M981.755 718.302L964.88 701.414L965.965 700.328L982.84 717.216L981.755 718.302Z" fill="white"/>
<path d="M998.636 718.311L981.761 701.421L982.846 700.335L999.721 717.225L998.636 718.311Z" fill="white"/>
<path d="M1015.51 718.316L998.638 701.428L999.723 700.342L1016.6 717.23L1015.51 718.316Z" fill="white"/>
<path d="M1032.4 718.321L1015.52 701.433L1016.61 700.347L1033.48 717.235L1032.4 718.321Z" fill="white"/>
</g>
<g opacity="0.4">
<path d="M269.483 277.039L245 301.432L246.574 303.001L271.057 278.608L269.483 277.039Z" fill="white"/>
<path d="M293.967 277.027L269.487 301.42L271.062 302.989L295.541 278.596L293.967 277.027Z" fill="white"/>
<path d="M318.453 277.014L293.974 301.41L295.548 302.979L320.028 278.583L318.453 277.014Z" fill="white"/>
<path d="M342.938 277.006L318.458 301.398L320.032 302.967L344.512 278.574L342.938 277.006Z" fill="white"/>
<path d="M367.426 277L342.946 301.393L344.521 302.961L369 278.569L367.426 277Z" fill="white"/>
</g>
<g opacity="0.4">
<path d="M155.604 908.046C163.216 901.045 171.176 893.976 179.26 886.797C205.37 863.609 232.769 839.277 253.873 812.42C281.493 777.27 298.253 737.884 287.176 691.216C276.422 645.906 241.158 622.688 199.443 603.395C189.018 598.573 178.199 594.001 167.265 589.39L166.494 589.064C155.815 584.561 145.035 580.015 134.427 575.162C112.7 565.225 91.6709 553.994 73.6623 539.184C53.9205 522.949 37.0338 501.738 21.3355 479.111C13.4855 467.796 5.9281 456.12 -1.54148 444.531C-2.03314 443.768 -2.52442 443.005 -3.01538 442.243C-9.98482 431.427 -16.8892 420.711 -23.9023 410.449C-53.9581 366.47 -85.8675 331.058 -132.953 331.929C-183.191 332.858 -229.114 361.511 -263.948 403.119C-298.779 444.725 -322.472 499.23 -328.264 551.738C-333.262 597.042 -310.296 634.557 -280.013 671.149C-270.873 682.193 -261.088 693.13 -251.213 704.167C-244.72 711.424 -238.189 718.723 -231.777 726.126C-215.627 744.768 -200.269 764.023 -188.332 784.734C-176.886 804.593 -168.397 826.98 -160.824 849.824C-157.823 858.877 -154.968 867.995 -152.131 877.057C-147.801 890.885 -143.512 904.584 -138.805 917.729C-123.227 961.235 -103.193 998.302 -62.5211 1012.87C-20.1905 1028.02 18.576 1016.33 54.6689 993.57C84.0907 975.015 111.674 949.144 137.909 924.537C143.875 918.941 149.771 913.41 155.604 908.046Z" stroke="#00F0B5"/>
<path d="M118.841 852.321C124.837 846.806 131.107 841.238 137.473 835.585C158.029 817.33 179.591 798.181 196.201 777.043C217.936 749.382 231.114 718.403 222.403 681.703C213.948 646.08 186.225 627.818 153.387 612.63C145.18 608.835 136.663 605.235 128.055 601.604L127.444 601.347C119.038 597.802 110.549 594.222 102.196 590.401C85.0873 582.576 68.5201 573.728 54.3305 562.059C38.7754 549.267 25.4732 532.557 13.1113 514.739C6.92946 505.829 0.978325 496.635 -4.90275 487.51C-5.28972 486.91 -5.67637 486.309 -6.06276 485.71C-11.5504 477.193 -16.9858 468.757 -22.5068 460.678C-46.1728 426.049 -71.2667 398.219 -108.276 398.903C-147.789 399.634 -183.92 422.171 -211.334 454.917C-238.745 487.659 -257.391 530.554 -261.949 571.875C-265.879 607.499 -247.822 637.007 -223.983 665.814C-216.787 674.508 -209.086 683.116 -201.312 691.804C-196.2 697.517 -191.057 703.266 -186.006 709.097C-173.289 723.777 -161.191 738.943 -151.788 755.259C-142.771 770.904 -136.084 788.538 -130.121 806.526C-127.757 813.658 -125.509 820.838 -123.275 827.973C-119.866 838.858 -116.49 849.64 -112.785 859.988C-100.521 894.239 -84.7614 923.379 -52.7888 934.828C-19.5036 946.747 10.9834 937.559 39.386 919.646C62.5416 905.043 84.2495 884.682 104.905 865.308C109.604 860.902 114.247 856.546 118.841 852.321Z" stroke="#00F0B5"/>
<path d="M92.2842 812.058C97.113 807.617 102.161 803.134 107.286 798.583C123.829 783.891 141.174 768.488 154.536 751.482C172.02 729.232 182.609 704.328 175.607 674.829C168.813 646.205 146.54 631.524 120.114 619.302C113.511 616.249 106.658 613.352 99.7291 610.43L99.2408 610.224C92.474 607.37 85.6396 604.488 78.9142 601.412C65.1409 595.112 51.7978 587.987 40.3675 578.587C27.8375 568.283 17.1251 554.825 7.17392 540.482C2.19735 533.309 -2.59323 525.908 -7.32656 518.564C-7.63782 518.081 -7.94882 517.598 -8.25962 517.116C-12.6766 510.26 -17.0508 503.471 -21.4937 496.97C-40.5429 469.097 -60.7124 446.744 -90.4408 447.294C-122.205 447.882 -151.261 465.999 -173.314 492.341C-195.364 518.68 -210.363 553.187 -214.03 586.424C-217.188 615.055 -202.679 638.777 -183.494 661.959C-177.704 668.955 -171.508 675.88 -165.253 682.871C-161.138 687.47 -156.998 692.097 -152.93 696.793C-142.694 708.61 -132.952 720.822 -125.379 733.962C-118.117 746.563 -112.732 760.763 -107.933 775.242C-106.029 780.986 -104.219 786.766 -102.421 792.509C-99.6781 801.268 -96.9624 809.941 -93.9805 818.269C-84.1105 845.833 -71.4395 869.246 -45.7524 878.444C-19.0027 888.023 5.50223 880.643 28.3485 866.235C46.9766 854.487 64.4397 838.107 81.0643 822.515C84.8463 818.967 88.585 815.461 92.2842 812.058Z" stroke="#00F0B5"/>
</g>
<g opacity="0.3">
<path d="M2126.04 608.385C2114.95 608.385 2103.86 604.225 2095.43 595.799L1778.44 278.804C1761.59 261.952 1761.59 234.54 1778.44 217.688C1786.65 209.475 1797.53 204.995 1809.05 204.995C1820.57 204.995 1831.45 209.475 1839.66 217.688L2156.66 534.683C2164.87 542.896 2169.35 553.668 2169.35 565.294C2169.35 576.814 2164.87 587.693 2156.66 595.906C2148.12 604.225 2137.14 608.385 2126.04 608.385ZM1809.05 207.128C1798.06 207.128 1787.72 211.395 1780.04 219.181C1764.04 235.18 1764.04 261.312 1780.04 277.311L2097.03 594.306C2113.03 610.305 2139.16 610.305 2155.16 594.306C2162.95 586.52 2167.22 576.174 2167.22 565.294C2167.22 554.308 2162.95 543.962 2155.16 536.283L1838.06 219.181C1830.38 211.395 1820.04 207.128 1809.05 207.128Z" fill="#00F0B5"/>
<path d="M2113.25 528.39C2102.15 528.39 2091.06 524.23 2082.63 515.804L1765.64 198.809C1748.79 181.957 1748.79 154.545 1765.64 137.693C1773.85 129.48 1784.73 125 1796.25 125C1807.77 125 1818.65 129.48 1826.86 137.693L2143.86 454.688C2152.07 462.901 2156.55 473.673 2156.55 485.299C2156.55 496.819 2152.07 507.698 2143.86 515.911C2135.32 524.23 2124.34 528.39 2113.25 528.39ZM1796.25 127.133C1785.26 127.133 1774.92 131.4 1767.24 139.186C1751.24 155.185 1751.24 181.317 1767.24 197.316L2084.23 514.311C2100.23 530.31 2126.37 530.31 2142.36 514.311C2150.15 506.525 2154.42 496.179 2154.42 485.299C2154.42 474.313 2150.15 463.967 2142.36 456.288L1825.26 139.186C1817.58 131.4 1807.24 127.133 1796.25 127.133Z" fill="#00F0B5"/>
</g>
</g>
<defs>
<radialGradient id="paint0_radial_2196_2254" cx="0" cy="0" r="1" gradientUnits="userSpaceOnUse" gradientTransform="translate(192 146) rotate(43.7519) scale(1298.56 2308.54)">
<stop stop-color="#1E212C"/>
<stop offset="0.563811" stop-color="#232441"/>
<stop offset="1" stop-color="#1E212C"/>
</radialGradient>
<clipPath id="clip0_2196_2254">
<rect width="1920" height="1080" fill="white"/>
</clipPath>
</defs>
</svg>
