<svg width="994" height="960" viewBox="0 0 994 960" fill="none" xmlns="http://www.w3.org/2000/svg">
<path opacity="0.1" d="M1204.29 534.547C1164.41 686.101 1137.42 882.209 970.167 925.491C807.62 967.556 703.495 778.724 549.643 714.342C380.975 643.759 124.099 711.74 47.4622 560.019C-34.1021 398.542 75.479 171.59 232.554 65.0135C368.46 -27.1986 548.729 85.1943 719.732 91.4561C883.663 97.4588 1072.41 -5.18432 1187.41 99.978C1306.99 209.325 1243.3 386.33 1204.29 534.547Z" fill="url(#paint0_linear_10150_3051)"/>
<path d="M285.691 502.62L367.261 575.926L403.464 723L462.481 708.674L452.595 698.14C452.595 698.14 450.325 476.96 354.551 441.445" fill="#B3B7BC"/>
<rect x="240.629" y="500.758" width="92.0203" height="33.1093" rx="16.5546" fill="#00F0B5"/>
<path d="M316.148 533.866H257.128" stroke="#1E212C" stroke-width="1.5" stroke-linecap="round" stroke-linejoin="round"/>
<path d="M291.387 260.769V288.033L325.05 296.335V250.325L291.387 242.023V260.769Z" fill="#D7DADD"/>
<path d="M295.252 274.611C294.952 274.985 294.872 275.49 295.039 275.939C295.206 276.389 295.597 276.717 296.067 276.803C297.951 277.461 301.315 273.981 303.604 276.354C303.604 276.354 304.509 273.486 310.605 275.973C316.7 278.46 315.02 274.037 315.02 274.037" stroke="white" stroke-width="1.5" stroke-linecap="round" stroke-linejoin="round"/>
<path d="M310.404 270.203C310.901 270.203 311.304 269.798 311.304 269.3C311.304 268.801 310.901 268.396 310.404 268.396C309.907 268.396 309.504 268.801 309.504 269.3C309.504 269.798 309.907 270.203 310.404 270.203Z" fill="#1E212C"/>
<path d="M296.581 270.203C297.078 270.203 297.481 269.798 297.481 269.3C297.481 268.801 297.078 268.396 296.581 268.396C296.084 268.396 295.681 268.801 295.681 269.3C295.681 269.798 296.084 270.203 296.581 270.203Z" fill="#1E212C"/>
<path d="M300.633 274.687V260.77H293.684" stroke="#1E212C" stroke-width="1.5" stroke-linecap="round" stroke-linejoin="round"/>
<path d="M312.097 260.77H305.148" stroke="#1E212C" stroke-width="1.5" stroke-linecap="round" stroke-linejoin="round"/>
<path d="M322.836 267.901V272.734C325.434 272.734 327.541 270.62 327.541 268.013C327.541 267.868 327.534 267.725 327.522 267.584C327.258 264.652 322.836 264.958 322.836 267.901Z" fill="#E5E8ED"/>
<path d="M322.836 272.733C325.434 272.733 327.541 270.62 327.541 268.013" stroke="#1E212C" stroke-width="1.5" stroke-linecap="round" stroke-linejoin="round"/>
<path d="M314.254 293.673L325.05 296.335" stroke="#1E212C" stroke-width="1.5" stroke-linecap="round" stroke-linejoin="round"/>
<path d="M300.637 274.697L303.676 275.447" stroke="#1E212C" stroke-width="1.5" stroke-linecap="round" stroke-linejoin="round"/>
<path d="M291.387 271.646C291.387 271.646 283.565 288.413 295.678 293.719C307.791 299.025 325.077 285.634 322.833 270.203" stroke="white" stroke-width="1.5" stroke-linecap="round" stroke-linejoin="round"/>
<path d="M290.129 253.286C290.129 253.286 292.816 258.283 302.155 258.491V255.409C306.295 257.955 311.082 259.245 315.937 259.123V256.682C315.937 256.682 321.754 263.237 317.1 268.396" stroke="white" stroke-width="1.5" stroke-linecap="round" stroke-linejoin="round"/>
<path d="M304.312 280.071C306.265 280.071 307.849 278.483 307.849 276.523" stroke="#1E212C" stroke-width="1.5" stroke-linecap="round" stroke-linejoin="round"/>
<path d="M291.391 266.923C291.391 266.923 277.79 243.364 292.608 240.499C307.425 237.634 317.579 244.319 317.579 244.319C317.579 244.319 339.987 248.88 325.055 265.542" stroke="white" stroke-width="1.5" stroke-linecap="round" stroke-linejoin="round"/>
<path d="M263.164 345.158V418.911L367.301 444.59V362.45C367.301 333.324 347.483 307.961 319.292 301.01H319.292C305.772 297.676 291.476 300.762 280.52 309.38C269.564 317.998 263.164 331.19 263.164 345.158V345.158Z" fill="#00F0B5"/>
<path d="M263.169 418.91C263.169 418.91 245.074 544.69 378.345 524.636L378.98 630.362H443.444L433.557 621.733C433.557 621.733 490.673 463.827 367.306 444.59" fill="#D7DADD"/>
<path d="M378.976 630.361H443.44" stroke="#1E212C" stroke-width="1.5" stroke-linecap="round" stroke-linejoin="round"/>
<path d="M263.169 418.91C263.169 418.91 245.074 544.69 378.345 524.636L378.98 630.362" stroke="#1E212C" stroke-width="1.5" stroke-linecap="round" stroke-linejoin="round"/>
<path d="M213 630.139H367.257" stroke="white" stroke-width="1.5" stroke-linecap="round" stroke-linejoin="round"/>
<path d="M286.69 533.754V629.953" stroke="white" stroke-width="1.5" stroke-linecap="round" stroke-linejoin="round"/>
<path d="M285.691 305.859C285.691 305.859 242.535 330.754 248.035 390.606C253.535 450.457 348.25 413.103 374.086 394.426C374.086 394.426 388.073 384.156 384.688 367.398L392.806 361.9L390.614 357.072L293.689 372.133L297.483 348.583" stroke="white" stroke-width="1.5" stroke-linecap="round" stroke-linejoin="round"/>
<path d="M267.11 419.374C274.687 431.096 296.814 436.125 320.693 430.626C342.169 425.681 358.663 413.694 363.021 401.246C338.179 414.782 292.897 430.581 267.11 419.374Z" fill="#1E212C"/>
<path d="M333.227 306.256L397.378 335.847C397.378 335.847 412.185 277.172 429.532 274.037C446.878 270.902 446.753 272.733 446.753 272.733L445.769 277.338L437.521 280.071C437.521 280.071 441.378 299.156 431.224 299.673C431.224 299.673 462.755 415.193 365.758 399.715" stroke="white" stroke-width="1.5" stroke-linecap="round" stroke-linejoin="round"/>
<path d="M698.796 422.83L536.633 367.54L557.298 283.925L731.601 290.27L698.796 422.83Z" fill="#B3B7BC"/>
<path d="M610.092 547.232L430.199 421.696L536.633 367.426L698.796 422.829L610.092 547.232Z" fill="#E5E8ED"/>
<path d="M608.796 501.347L476.39 416.202L477.914 415.636L609.474 500.214L608.796 501.347Z" fill="#1E212C"/>
<path d="M627.429 476.704L496.151 404.702L497.45 403.909L628.445 475.514L627.429 476.704Z" fill="#1E212C"/>
<path d="M645.554 454.667L516.761 394.392L518.003 393.542L646.288 453.591L645.554 454.667Z" fill="#1E212C"/>
<path d="M664.019 431.894L534.604 382.269L535.96 381.419L665.035 430.648L664.019 431.894Z" fill="#1E212C"/>
<path d="M482.542 434.443L481.074 433.65L560.292 387.764L561.93 388.33L482.542 434.443Z" fill="#1E212C"/>
<path d="M516.481 457.104L515.069 456.367L586.496 396.545L587.964 396.998L516.481 457.104Z" fill="#1E212C"/>
<path d="M551.651 480.897L550.409 480.104L617.544 407.762L618.956 408.102L551.651 480.897Z" fill="#1E212C"/>
<path d="M587.736 504.802L586.776 504.009L654.024 421.924L655.266 422.377L587.736 504.802Z" fill="#1E212C"/>
<path d="M739.845 285.85C739.675 285.737 739.449 285.681 739.223 285.681L577.343 280.525H577.286L557.298 283.924L562.888 284.151L577.343 281.828L737.304 286.927L731.657 290.269L731.262 291.969L738.659 287.437L702.409 435.293L698.909 422.66L539.512 368.389L537.875 369.239L698.005 423.963L701.675 437.955L609.075 568.533L611.108 545.76L610.092 547.233L608.003 570.176L432.232 438.975L431.554 422.66L430.199 421.697L430.99 439.655L608.003 572.045L703.03 438.238L740.127 286.644C740.183 286.36 740.07 286.077 739.845 285.85Z" fill="white"/>
<path d="M581.356 353.508C579.828 353.092 578.351 352.516 576.949 351.788C575.593 351.099 574.322 350.26 573.159 349.288C572.044 348.405 571.025 347.411 570.118 346.32C569.234 345.226 568.493 344.025 567.912 342.747L579.885 335.248C580.406 336.696 581.212 338.027 582.258 339.164C583.359 340.388 584.79 341.277 586.385 341.729C587.088 341.918 587.827 341.946 588.544 341.809C588.906 341.747 589.244 341.591 589.524 341.356C589.804 341.121 590.014 340.816 590.134 340.474C590.299 340.122 590.341 339.727 590.255 339.35C590.127 338.91 589.895 338.508 589.576 338.175C589.076 337.595 588.514 337.07 587.899 336.609C587.176 335.995 586.244 335.27 585.099 334.403C584.016 333.572 583.016 332.643 582.11 331.627C581.201 330.656 580.473 329.533 579.961 328.31C579.461 326.996 579.222 325.599 579.257 324.195C579.363 322.413 579.796 320.664 580.535 319.033C581.508 316.585 583.007 314.372 584.928 312.549C586.594 311 588.54 309.775 590.663 308.938C592.675 308.165 594.813 307.764 596.969 307.756C599.016 307.732 601.056 307.981 603.035 308.494C605.612 309.233 607.997 310.513 610.026 312.245C612.175 314.051 613.854 316.339 614.923 318.918L602.991 325.825C602.685 324.44 601.986 323.171 600.974 322.168C600.151 321.292 599.105 320.651 597.944 320.311C597.148 320.06 596.302 319.998 595.476 320.131C595.14 320.2 594.826 320.352 594.564 320.573C594.302 320.793 594.101 321.075 593.978 321.392C593.812 321.663 593.738 321.98 593.769 322.295C593.801 322.61 593.934 322.907 594.151 323.14C594.885 323.869 595.681 324.534 596.532 325.127C597.71 325.99 598.897 326.951 600.13 328.038C601.361 329.099 602.421 330.338 603.274 331.714C604.123 333.148 604.653 334.745 604.829 336.398C604.946 338.446 604.557 340.493 603.696 342.363C602.71 344.77 601.25 346.96 599.399 348.805C597.753 350.425 595.815 351.727 593.686 352.642C591.693 353.521 589.556 354.033 587.379 354.152C585.349 354.252 583.316 354.035 581.356 353.508Z" fill="white"/>
<path d="M620.679 314.427L646.978 321.758L641.886 334.032L627.641 330.077L626.076 333.846L639.411 337.559L634.735 349.062L621.235 345.332L619.54 349.445L634.662 353.643L629.57 365.917L602.361 358.344L620.679 314.427Z" fill="white"/>
<path d="M642.584 344.805C643.947 341.493 645.883 338.443 648.304 335.794C650.434 333.389 652.977 331.378 655.814 329.857C661.276 326.939 667.655 326.223 673.626 327.858C676.486 328.593 679.153 329.93 681.448 331.778C683.555 333.491 685.221 335.679 686.307 338.161C687.431 340.811 687.94 343.68 687.797 346.555C687.624 349.962 686.835 353.312 685.469 356.444C684.078 359.76 682.148 362.827 679.756 365.52C677.604 367.997 675.021 370.068 672.131 371.633C669.417 373.136 666.44 374.112 663.36 374.508C660.294 374.88 657.185 374.653 654.207 373.841C651.349 373.105 648.689 371.755 646.415 369.884C644.321 368.108 642.683 365.861 641.637 363.329C640.569 360.604 640.1 357.682 640.263 354.76C640.422 351.33 641.209 347.957 642.584 344.805ZM656.172 348.547C655.62 349.851 655.255 351.225 655.088 352.63C654.988 353.813 655.106 355.003 655.434 356.143C655.727 357.152 656.273 358.07 657.02 358.811C657.786 359.541 658.724 360.069 659.749 360.347C660.832 360.626 661.964 360.659 663.063 360.445C664.198 360.213 665.277 359.76 666.236 359.111C667.389 358.405 668.418 357.515 669.28 356.476C670.184 355.326 670.926 354.058 671.486 352.709C672.044 351.432 672.401 350.078 672.543 348.694C672.665 347.599 672.556 346.491 672.222 345.441C671.895 344.476 671.332 343.606 670.584 342.91C669.825 342.179 668.885 341.661 667.859 341.407C666.776 341.12 665.644 341.064 664.538 341.244C663.414 341.459 662.336 341.866 661.352 342.448C660.285 343.133 659.342 343.993 658.563 344.991C657.641 346.057 656.879 347.251 656.303 348.534L656.172 348.547Z" fill="white"/>
<path d="M550.303 246.575L483.483 263.994L470.645 214.418L471.857 214.102L484.38 262.459L549.987 245.357L550.303 246.575Z" fill="#E5E8ED"/>
<path d="M496.155 234.229L488.294 236.278L494.422 259.939L502.283 257.89L496.155 234.229Z" fill="#E5E8ED"/>
<path d="M509.105 219.427L501.244 221.477L510.144 255.842L518.005 253.792L509.105 219.427Z" fill="#E5E8ED"/>
<path d="M525.178 207.419L517.317 209.469L528.114 251.157L535.975 249.108L525.178 207.419Z" fill="#E5E8ED"/>
<path d="M678.06 584.064C678.056 591.229 680.139 598.238 684.054 604.23C687.969 610.222 693.544 614.936 700.093 617.791C706.643 620.645 713.881 621.517 720.918 620.298C727.955 619.08 734.483 615.824 739.7 610.932C744.917 606.039 748.595 599.724 750.281 592.762C751.967 585.8 751.588 578.495 749.19 571.747C746.793 564.998 742.481 559.1 736.786 554.777C731.091 550.455 724.261 547.897 717.136 547.418V584.064H678.06Z" fill="#00F0B5"/>
<path d="M674.096 579.799H713.172V543.113C712.385 543.05 711.55 543.026 710.732 543.026C705.919 543.026 701.154 543.978 696.708 545.826C692.262 547.674 688.223 550.383 684.82 553.798C681.418 557.213 678.72 561.267 676.88 565.728C675.04 570.189 674.093 574.971 674.096 579.799Z" fill="#D7DADD"/>
<path d="M757.027 434.579L798.583 420.727L787.963 388.794L780.352 384.876L744.475 396.835L757.027 434.579Z" fill="#B3B7BC"/>
<path d="M757.59 434.861L802.131 420.014C802.197 419.992 802.251 419.945 802.282 419.884C802.312 419.822 802.317 419.75 802.296 419.685L790.913 385.458C790.89 385.394 790.845 385.341 790.786 385.309L782.629 381.115C782.567 381.083 782.494 381.077 782.428 381.098L743.973 393.917C743.908 393.939 743.853 393.985 743.823 394.047C743.792 394.109 743.787 394.181 743.809 394.246L757.263 434.702C757.274 434.734 757.291 434.764 757.313 434.789C757.336 434.815 757.363 434.836 757.393 434.85C757.424 434.865 757.457 434.874 757.491 434.876C757.524 434.878 757.558 434.873 757.59 434.861ZM801.721 419.602L757.694 434.278L744.403 394.316L782.483 381.623L790.454 385.724L801.721 419.602Z" fill="white"/>
<path d="M751.242 402.956L787.961 390.716C788.026 390.694 788.08 390.647 788.111 390.586C788.142 390.524 788.147 390.452 788.125 390.387C788.103 390.321 788.056 390.267 787.995 390.236C787.933 390.205 787.862 390.2 787.796 390.222L751.078 402.462C751.012 402.483 750.958 402.53 750.928 402.592C750.897 402.654 750.892 402.725 750.914 402.791C750.935 402.856 750.982 402.911 751.044 402.942C751.105 402.973 751.177 402.978 751.242 402.956Z" fill="white"/>
<path d="M753.2 408.836L789.919 396.596C789.984 396.574 790.038 396.527 790.069 396.466C790.1 396.404 790.105 396.332 790.083 396.267C790.061 396.201 790.015 396.147 789.953 396.116C789.891 396.085 789.82 396.08 789.755 396.102L753.036 408.341C752.97 408.363 752.916 408.41 752.886 408.472C752.855 408.534 752.85 408.605 752.872 408.671C752.893 408.736 752.94 408.791 753.002 408.822C753.064 408.852 753.135 408.858 753.2 408.836Z" fill="white"/>
<path d="M755.138 414.672L791.856 402.432C791.922 402.41 791.976 402.363 792.007 402.302C792.037 402.24 792.042 402.168 792.021 402.103C791.999 402.037 791.952 401.983 791.89 401.952C791.829 401.921 791.757 401.916 791.692 401.938L754.973 414.177C754.908 414.199 754.854 414.246 754.823 414.308C754.792 414.37 754.787 414.441 754.809 414.507C754.831 414.572 754.878 414.627 754.939 414.658C755.001 414.689 755.072 414.694 755.138 414.672Z" fill="white"/>
<path d="M757.086 420.529L793.805 408.29C793.87 408.268 793.924 408.221 793.955 408.159C793.986 408.097 793.991 408.026 793.969 407.96C793.959 407.927 793.942 407.897 793.92 407.87C793.898 407.844 793.87 407.823 793.84 407.807C793.809 407.792 793.775 407.783 793.741 407.781C793.707 407.779 793.673 407.784 793.64 407.795L756.921 420.035C756.888 420.045 756.858 420.062 756.831 420.084C756.805 420.106 756.783 420.134 756.767 420.165C756.751 420.195 756.742 420.229 756.739 420.264C756.737 420.298 756.741 420.333 756.752 420.366C756.775 420.432 756.823 420.485 756.886 420.516C756.948 420.546 757.02 420.551 757.086 420.529Z" fill="white"/>
<path d="M759.035 426.388L795.754 414.148C795.786 414.137 795.816 414.12 795.842 414.098C795.868 414.075 795.889 414.048 795.904 414.017C795.919 413.987 795.928 413.954 795.931 413.919C795.933 413.885 795.929 413.851 795.918 413.819C795.908 413.786 795.891 413.755 795.869 413.729C795.847 413.703 795.82 413.681 795.789 413.666C795.758 413.65 795.725 413.641 795.69 413.639C795.656 413.637 795.622 413.642 795.589 413.654L758.871 425.893C758.838 425.904 758.807 425.92 758.781 425.943C758.754 425.965 758.732 425.992 758.717 426.023C758.701 426.054 758.691 426.088 758.689 426.122C758.686 426.157 758.69 426.192 758.701 426.224C758.725 426.29 758.773 426.344 758.835 426.374C758.898 426.405 758.97 426.41 759.035 426.388Z" fill="white"/>
<path d="M784.665 387.739L790.655 385.742C790.712 385.714 790.757 385.665 790.781 385.606C790.805 385.547 790.808 385.481 790.787 385.421C790.767 385.36 790.726 385.309 790.671 385.276C790.616 385.243 790.552 385.232 790.489 385.243L784.745 387.157L782.66 381.208C782.634 381.144 782.586 381.092 782.524 381.062C782.462 381.032 782.391 381.026 782.325 381.045C782.261 381.069 782.209 381.118 782.18 381.18C782.151 381.242 782.147 381.313 782.168 381.378L784.336 387.574C784.359 387.639 784.406 387.692 784.468 387.723C784.529 387.754 784.6 387.759 784.665 387.739Z" fill="white"/>
<defs>
<linearGradient id="paint0_linear_10150_3051" x1="1236.5" y1="627.5" x2="193.496" y2="-55.7284" gradientUnits="userSpaceOnUse">
<stop offset="0.00619811" stop-color="white" stop-opacity="0"/>
<stop offset="0.479312" stop-color="white"/>
<stop offset="1" stop-color="white" stop-opacity="0"/>
</linearGradient>
</defs>
</svg>
