<svg width="167" height="404" viewBox="0 0 167 404" fill="none" xmlns="http://www.w3.org/2000/svg">
<path d="M360.246 403.39C349.153 403.39 338.061 399.23 329.634 390.804L12.6393 73.8091C-4.21309 56.9567 -4.21309 29.545 12.6393 12.6926C20.8521 4.47974 31.7315 0 43.2508 0C54.7702 0 65.6496 4.47974 73.8624 12.6926L390.858 329.688C399.07 337.901 403.55 348.673 403.55 360.299C403.55 371.819 399.07 382.698 390.858 390.911C382.325 399.23 371.339 403.39 360.246 403.39ZM43.2508 2.13321C32.2648 2.13321 21.9187 6.39963 14.2392 14.1859C-1.7599 30.1849 -1.7599 56.3168 14.2392 72.3158L331.234 389.311C347.233 405.31 373.365 405.31 389.364 389.311C397.15 381.525 401.417 371.179 401.417 360.299C401.417 349.313 397.15 338.967 389.364 331.288L72.2625 14.1859C64.583 6.39963 54.2369 2.13321 43.2508 2.13321Z" fill="#00F0B5"/>
</svg>
